<?xml version="1.0" encoding="utf-8"?>
<!-- Generator: Adobe Illustrator 17.0.2, SVG Export Plug-In . SVG Version: 6.00 Build 0)  -->
<!DOCTYPE svg PUBLIC "-//W3C//DTD SVG 1.0//EN" "http://www.w3.org/TR/2001/REC-SVG-20010904/DTD/svg10.dtd">
<svg version="1.0" id="Layer_1" xmlns="http://www.w3.org/2000/svg" xmlns:xlink="http://www.w3.org/1999/xlink" x="0px" y="0px"
	 width="50px" height="50px" viewBox="0 0 50 50" style="enable-background:new 0 0 50 50;" xml:space="preserve">
<path d="M44,18h-0.028C43.751-0.001,42.296,0,41,0c-1.603,0-2.58,1.549-3.934,3.694C34.396,7.922,29.93,15,17,15
	c-0.009,0-0.017,0.005-0.027,0.005H6.308c-3.475,0-6.303,2.801-6.303,6.245v3.5c0,2.417,1.396,4.513,3.429,5.551
	c0.016,0.013,0.024,0.031,0.041,0.043c2.025,1.429,3.93,11.404,4.647,15.16c0.166,0.864,0.668,3.494,4.036,3.494h3.474
	c2.11,0,3.37-1.296,3.37-3.468c0-1.9-0.772-2.768-2.032-4.027c-0.373-0.373-1.83-3.393-1.957-10.509h1.958
	C16.981,30.994,16.99,31,17,31c12.981,0,17.231,6.788,20.044,11.28c1.352,2.159,2.329,3.72,4.038,3.72c1.322,0,2.686,0.002,2.892-18
	H44c2.757,0,5-2.243,5-5S46.757,18,44,18z M1.995,21.25c0-2.347,1.935-4.255,4.313-4.255h9.697v12.011h-1.976
	C14.019,29.006,14.01,29,14,29s-0.019,0.006-0.029,0.006H6.308c-2.378,0-4.313-1.909-4.313-4.256V21.25z M15.556,42.918
	c1.172,1.171,1.446,1.553,1.446,2.612c0,1.223-0.524,1.468-1.37,1.468h-3.474c-1.297,0-1.8-0.454-2.071-1.869
	c-1.391-7.282-2.525-11.661-3.735-14.135h6.659C13.129,37.544,14.384,41.747,15.556,42.918z M40.812,43.947
	c-0.536-0.274-1.348-1.57-2.072-2.728c-2.791-4.458-7.442-11.826-20.745-12.186V16.966c13.249-0.362,17.945-7.739,20.762-12.204
	c0.694-1.1,1.467-2.324,1.99-2.667C41.164,3.049,42,6.971,42,23C42,39.048,41.244,43.001,40.812,43.947z M44,26h-0.009
	C43.997,25.046,44,24.047,44,23s-0.003-2.046-0.01-3H44c1.654,0,3,1.346,3,3S45.654,26,44,26z"/>
</svg>
