<?xml version="1.0" encoding="utf-8"?>
<!-- Generator: Adobe Illustrator 17.0.2, SVG Export Plug-In . SVG Version: 6.00 Build 0)  -->
<!DOCTYPE svg PUBLIC "-//W3C//DTD SVG 1.0//EN" "http://www.w3.org/TR/2001/REC-SVG-20010904/DTD/svg10.dtd">
<svg version="1.0" id="Layer_1" xmlns="http://www.w3.org/2000/svg" xmlns:xlink="http://www.w3.org/1999/xlink" x="0px" y="0px"
	 width="50.04px" height="50.08px" viewBox="0 0 50.04 50.08" style="enable-background:new 0 0 50.04 50.08;" xml:space="preserve"
	>
<g>
	<path d="M39.857,15.443c-0.391-0.391-1.023-0.391-1.414,0s-0.391,1.023,0,1.414l7.183,7.183H16.04c-0.552,0-1,0.448-1,1
		c0,0.553,0.448,1,1,1h29.586l-7.183,7.183c-0.391,0.391-0.391,1.023,0,1.414c0.195,0.195,0.451,0.293,0.707,0.293
		s0.512-0.098,0.707-0.293l9.597-9.597L39.857,15.443z"/>
	<path d="M30,48H2.08V2.08H30v8.96h2.08v-10c0-0.574-0.466-1.04-1.04-1.04h-30C0.466,0,0,0.466,0,1.04v48
		c0,0.574,0.466,1.04,1.04,1.04h30c0.574,0,1.04-0.466,1.04-1.04v-10H30V48z"/>
</g>
</svg>
